# xmcd
#
# Track frame offsets: 
#        150
#        18885
#        33480
#        47933
#        62950
#        77375
#        95538
#        112688
#        129940
#        145733
#
# Disc length: 2280 seconds
#
# Revision: 11
# Processed by: cddbd v1.5.2PL0 Copyright (c) Steve Scherf et al.
# Submitted via: ExactAudioCopyFreeDBPlugin 1.0
#
DISCID=7608e60a
DTITLE=Nanci Griffith - Storms
DYEAR=1989
DGENRE=Country
TTITLE0=I Don't Wanna Talk About Love
TTITLE1=Drive-In Movies and Dashboard Lights
TTITLE2=You Made This Love a Teardrop
TTITLE3=Brave Companion of the Road
TTITLE4=Storms
TTITLE5=It's a Hard Life Wherever You Go
TTITLE6=If Wishes Were Changes
TTITLE7=Listen to the Radio
TTITLE8=Leaving the Harbor
TTITLE9=Radio Fragile
EXTD=more info\nMillenniumMusicProjectFormat, syntax as follows:\nTitl
EXTD=e{Subtitle}[info](Lyricist;Composer;Date,Artist,Location)[info]\n
EXTD=corrections to: windking3@yahoo.com YEAR: 1989
EXTT0=
EXTT1=
EXTT2=
EXTT3=
EXTT4=
EXTT5=
EXTT6=
EXTT7=
EXTT8=
EXTT9=
PLAYORDER=
